<?xml version="1.0" encoding="UTF-8" standalone="no" ?>
<!DOCTYPE svg PUBLIC "-//W3C//DTD SVG 1.1//EN" "http://www.w3.org/Graphics/SVG/1.1/DTD/svg11.dtd">
<svg xmlns="http://www.w3.org/2000/svg" xmlns:xlink="http://www.w3.org/1999/xlink" version="1.1" width="250" height="304.86282" viewBox="359.7581388780226 217.8162172057294 39.795644127884366 48.528849170173075" xml:space="preserve">
<desc>Created with Fabric.js 4.6.0</desc>
<defs>
</defs>
<g transform="matrix(0.32 0 0 0.32 379.66 242.08)" id="VxKaefbWVaTqfnGp8mcIQ"  >
<path style="stroke: rgb(0,0,0); stroke-width: 0; stroke-dasharray: none; stroke-linecap: butt; stroke-dashoffset: 0; stroke-linejoin: miter; stroke-miterlimit: 4; fill: rgb(255,255,255); fill-rule: nonzero; opacity: 1;" vector-effect="non-scaling-stroke"  transform=" translate(-62.52, -76.24)" d="M 87.28422 0 L 87.28422 20.88773 L 65.09101000000001 20.88773 C 65.09101000000001 20.88773 45.247670000000014 18.864230000000003 44.46438000000001 42.297650000000004 C 43.68109000000001 65.73107 65.09101000000001 66.57963000000001 65.09101000000001 66.57963000000001 L 67.35133000000002 66.57963000000001 L 67.35133000000002 28.279210000000006 L 87.19467000000002 28.279210000000006 L 87.19467000000002 66.57963000000001 L 88.58970000000002 66.57963000000001 C 88.58970000000002 66.57963000000001 119.79074000000003 69.38642000000002 124.62103000000002 105.48302000000001 C 129.45132 141.57963 90.93957000000002 152.48041 90.93957000000002 152.48041 L 90.93957000000002 132.63707 C 90.93957000000002 132.63707 104.62930000000001 126.34612999999999 103.71546000000002 107.4819 C 103.06876000000003 94.13225 93.01654000000002 89.65366999999999 87.19467000000002 88.17605 L 87.19467000000002 90.27091 C 87.19467000000002 90.27091 91.77255000000002 134.93002 45.95300000000002 137.27989 C 0.13344000000001444 139.62976 1.4210854715202004e-14 90.27090999999999 1.4210854715202004e-14 90.27090999999999 L 20.887730000000015 90.27090999999999 C 20.887730000000015 90.27090999999999 18.761290000000017 116.50531999999998 44.21531000000002 116.84617999999999 C 69.66933000000002 117.18704 67.35133000000002 90.27090999999999 67.35133000000002 90.27090999999999 L 67.35133000000002 87.45960999999998 C 65.08079000000002 87.25406999999998 20.408900000000017 82.69415999999998 23.054450000000017 42.29764999999998 C 25.768920000000016 0.8485599999999849 62.632970000000014 -1.4210854715202004e-14 62.632970000000014 -1.4210854715202004e-14 z" stroke-linecap="round" />
</g>
</svg>